<mxfile host="app.diagrams.net" modified="2021-08-06T07:24:26.605Z" agent="5.0 (Windows NT 10.0; Win64; x64) AppleWebKit/537.36 (KHTML, like Gecko) Chrome/92.0.4515.131 Safari/537.36" etag="NzcUPo2wxda96YD6A_E-" version="14.9.4" type="github">
  <diagram id="C5RBs43oDa-KdzZeNtuy" name="Page-1">
    <mxGraphModel dx="1209" dy="662" grid="1" gridSize="10" guides="1" tooltips="1" connect="1" arrows="1" fold="1" page="1" pageScale="1" pageWidth="827" pageHeight="1169" math="0" shadow="0">
      <root>
        <mxCell id="WIyWlLk6GJQsqaUBKTNV-0" />
        <mxCell id="WIyWlLk6GJQsqaUBKTNV-1" parent="WIyWlLk6GJQsqaUBKTNV-0" />
        <mxCell id="CmpI9BO4n1bqRSCLh2Nl-0" value="Customer&amp;nbsp;" style="rounded=0;whiteSpace=wrap;html=1;" vertex="1" parent="WIyWlLk6GJQsqaUBKTNV-1">
          <mxGeometry x="110" y="90" width="120" height="40" as="geometry" />
        </mxCell>
        <mxCell id="CmpI9BO4n1bqRSCLh2Nl-1" value="places" style="rhombus;whiteSpace=wrap;html=1;" vertex="1" parent="WIyWlLk6GJQsqaUBKTNV-1">
          <mxGeometry x="300" y="70" width="80" height="80" as="geometry" />
        </mxCell>
        <mxCell id="CmpI9BO4n1bqRSCLh2Nl-2" value="Order&amp;nbsp;" style="rounded=0;whiteSpace=wrap;html=1;" vertex="1" parent="WIyWlLk6GJQsqaUBKTNV-1">
          <mxGeometry x="470" y="90" width="120" height="40" as="geometry" />
        </mxCell>
        <mxCell id="CmpI9BO4n1bqRSCLh2Nl-3" value="1" style="endArrow=none;html=1;entryX=0;entryY=0.5;entryDx=0;entryDy=0;exitX=1;exitY=0.5;exitDx=0;exitDy=0;" edge="1" parent="WIyWlLk6GJQsqaUBKTNV-1" source="CmpI9BO4n1bqRSCLh2Nl-0" target="CmpI9BO4n1bqRSCLh2Nl-1">
          <mxGeometry width="50" height="50" relative="1" as="geometry">
            <mxPoint x="260" y="170" as="sourcePoint" />
            <mxPoint x="280" y="50" as="targetPoint" />
          </mxGeometry>
        </mxCell>
        <mxCell id="CmpI9BO4n1bqRSCLh2Nl-4" value="M" style="endArrow=none;html=1;entryX=0;entryY=0.5;entryDx=0;entryDy=0;exitX=1;exitY=0.5;exitDx=0;exitDy=0;" edge="1" parent="WIyWlLk6GJQsqaUBKTNV-1" source="CmpI9BO4n1bqRSCLh2Nl-1" target="CmpI9BO4n1bqRSCLh2Nl-2">
          <mxGeometry width="50" height="50" relative="1" as="geometry">
            <mxPoint x="490" y="170" as="sourcePoint" />
            <mxPoint x="520" y="50" as="targetPoint" />
          </mxGeometry>
        </mxCell>
        <mxCell id="CmpI9BO4n1bqRSCLh2Nl-8" value="Employee&amp;nbsp;" style="rounded=0;whiteSpace=wrap;html=1;" vertex="1" parent="WIyWlLk6GJQsqaUBKTNV-1">
          <mxGeometry x="470" y="410" width="120" height="40" as="geometry" />
        </mxCell>
        <mxCell id="CmpI9BO4n1bqRSCLh2Nl-9" value="Take&amp;nbsp;" style="rhombus;whiteSpace=wrap;html=1;" vertex="1" parent="WIyWlLk6GJQsqaUBKTNV-1">
          <mxGeometry x="490" y="250" width="80" height="80" as="geometry" />
        </mxCell>
        <mxCell id="CmpI9BO4n1bqRSCLh2Nl-10" value="M" style="endArrow=none;html=1;entryX=0.5;entryY=1;entryDx=0;entryDy=0;exitX=0.5;exitY=0;exitDx=0;exitDy=0;" edge="1" parent="WIyWlLk6GJQsqaUBKTNV-1" source="CmpI9BO4n1bqRSCLh2Nl-8" target="CmpI9BO4n1bqRSCLh2Nl-9">
          <mxGeometry width="50" height="50" relative="1" as="geometry">
            <mxPoint x="320" y="320" as="sourcePoint" />
            <mxPoint x="370" y="270" as="targetPoint" />
          </mxGeometry>
        </mxCell>
        <mxCell id="CmpI9BO4n1bqRSCLh2Nl-11" value="1" style="endArrow=none;html=1;exitX=0.5;exitY=0;exitDx=0;exitDy=0;entryX=0.5;entryY=1;entryDx=0;entryDy=0;" edge="1" parent="WIyWlLk6GJQsqaUBKTNV-1" source="CmpI9BO4n1bqRSCLh2Nl-9" target="CmpI9BO4n1bqRSCLh2Nl-2">
          <mxGeometry width="50" height="50" relative="1" as="geometry">
            <mxPoint x="520" y="400" as="sourcePoint" />
            <mxPoint x="570" y="130" as="targetPoint" />
          </mxGeometry>
        </mxCell>
        <mxCell id="CmpI9BO4n1bqRSCLh2Nl-15" value="ship" style="rhombus;whiteSpace=wrap;html=1;" vertex="1" parent="WIyWlLk6GJQsqaUBKTNV-1">
          <mxGeometry x="700" y="110" width="80" height="80" as="geometry" />
        </mxCell>
        <mxCell id="CmpI9BO4n1bqRSCLh2Nl-16" value="shipper&amp;nbsp;" style="rounded=0;whiteSpace=wrap;html=1;" vertex="1" parent="WIyWlLk6GJQsqaUBKTNV-1">
          <mxGeometry x="680" y="290" width="120" height="40" as="geometry" />
        </mxCell>
        <mxCell id="CmpI9BO4n1bqRSCLh2Nl-17" value="M" style="endArrow=none;html=1;entryX=0.5;entryY=1;entryDx=0;entryDy=0;exitX=0.5;exitY=0;exitDx=0;exitDy=0;" edge="1" parent="WIyWlLk6GJQsqaUBKTNV-1" source="CmpI9BO4n1bqRSCLh2Nl-16" target="CmpI9BO4n1bqRSCLh2Nl-15">
          <mxGeometry width="50" height="50" relative="1" as="geometry">
            <mxPoint x="400" y="400" as="sourcePoint" />
            <mxPoint x="450" y="350" as="targetPoint" />
          </mxGeometry>
        </mxCell>
        <mxCell id="CmpI9BO4n1bqRSCLh2Nl-18" value="1" style="endArrow=none;html=1;entryX=1;entryY=0.5;entryDx=0;entryDy=0;exitX=0.5;exitY=0;exitDx=0;exitDy=0;" edge="1" parent="WIyWlLk6GJQsqaUBKTNV-1" source="CmpI9BO4n1bqRSCLh2Nl-15" target="CmpI9BO4n1bqRSCLh2Nl-2">
          <mxGeometry width="50" height="50" relative="1" as="geometry">
            <mxPoint x="510" y="320" as="sourcePoint" />
            <mxPoint x="560" y="270" as="targetPoint" />
          </mxGeometry>
        </mxCell>
        <mxCell id="CmpI9BO4n1bqRSCLh2Nl-29" value="supplier&amp;nbsp;" style="rounded=0;whiteSpace=wrap;html=1;" vertex="1" parent="WIyWlLk6GJQsqaUBKTNV-1">
          <mxGeometry x="90" y="490" width="120" height="40" as="geometry" />
        </mxCell>
        <mxCell id="CmpI9BO4n1bqRSCLh2Nl-30" value="supplies" style="rhombus;whiteSpace=wrap;html=1;" vertex="1" parent="WIyWlLk6GJQsqaUBKTNV-1">
          <mxGeometry x="110" y="300" width="80" height="80" as="geometry" />
        </mxCell>
        <mxCell id="CmpI9BO4n1bqRSCLh2Nl-31" value="Products&amp;nbsp;" style="rounded=0;whiteSpace=wrap;html=1;" vertex="1" parent="WIyWlLk6GJQsqaUBKTNV-1">
          <mxGeometry x="315" y="320" width="120" height="40" as="geometry" />
        </mxCell>
        <mxCell id="CmpI9BO4n1bqRSCLh2Nl-32" value="1" style="endArrow=none;html=1;entryX=0;entryY=0.5;entryDx=0;entryDy=0;exitX=1;exitY=0.5;exitDx=0;exitDy=0;" edge="1" parent="WIyWlLk6GJQsqaUBKTNV-1" source="CmpI9BO4n1bqRSCLh2Nl-30" target="CmpI9BO4n1bqRSCLh2Nl-31">
          <mxGeometry width="50" height="50" relative="1" as="geometry">
            <mxPoint x="240" y="380" as="sourcePoint" />
            <mxPoint x="290" y="330" as="targetPoint" />
          </mxGeometry>
        </mxCell>
        <mxCell id="CmpI9BO4n1bqRSCLh2Nl-33" value="M" style="endArrow=none;html=1;entryX=0.5;entryY=1;entryDx=0;entryDy=0;exitX=0.5;exitY=0;exitDx=0;exitDy=0;" edge="1" parent="WIyWlLk6GJQsqaUBKTNV-1" source="CmpI9BO4n1bqRSCLh2Nl-29" target="CmpI9BO4n1bqRSCLh2Nl-30">
          <mxGeometry width="50" height="50" relative="1" as="geometry">
            <mxPoint x="230" y="480" as="sourcePoint" />
            <mxPoint x="270" y="400" as="targetPoint" />
          </mxGeometry>
        </mxCell>
        <mxCell id="CmpI9BO4n1bqRSCLh2Nl-34" value="include&amp;nbsp;" style="rhombus;whiteSpace=wrap;html=1;" vertex="1" parent="WIyWlLk6GJQsqaUBKTNV-1">
          <mxGeometry x="380" y="180" width="80" height="80" as="geometry" />
        </mxCell>
        <mxCell id="CmpI9BO4n1bqRSCLh2Nl-35" value="M" style="endArrow=none;html=1;entryX=0;entryY=1;entryDx=0;entryDy=0;exitX=0.5;exitY=0;exitDx=0;exitDy=0;" edge="1" parent="WIyWlLk6GJQsqaUBKTNV-1" source="CmpI9BO4n1bqRSCLh2Nl-34" target="CmpI9BO4n1bqRSCLh2Nl-2">
          <mxGeometry width="50" height="50" relative="1" as="geometry">
            <mxPoint x="420" y="200" as="sourcePoint" />
            <mxPoint x="470" y="150" as="targetPoint" />
          </mxGeometry>
        </mxCell>
        <mxCell id="CmpI9BO4n1bqRSCLh2Nl-36" value="M" style="endArrow=none;html=1;entryX=0.5;entryY=1;entryDx=0;entryDy=0;exitX=0.56;exitY=0.005;exitDx=0;exitDy=0;exitPerimeter=0;" edge="1" parent="WIyWlLk6GJQsqaUBKTNV-1" source="CmpI9BO4n1bqRSCLh2Nl-31" target="CmpI9BO4n1bqRSCLh2Nl-34">
          <mxGeometry width="50" height="50" relative="1" as="geometry">
            <mxPoint x="100" y="250" as="sourcePoint" />
            <mxPoint x="150" y="200" as="targetPoint" />
          </mxGeometry>
        </mxCell>
        <mxCell id="CmpI9BO4n1bqRSCLh2Nl-40" value="Name" style="ellipse;whiteSpace=wrap;html=1;" vertex="1" parent="WIyWlLk6GJQsqaUBKTNV-1">
          <mxGeometry x="10" y="50" width="80" height="30" as="geometry" />
        </mxCell>
        <mxCell id="CmpI9BO4n1bqRSCLh2Nl-41" value="Phone no" style="ellipse;whiteSpace=wrap;html=1;" vertex="1" parent="WIyWlLk6GJQsqaUBKTNV-1">
          <mxGeometry x="70" y="20" width="100" height="30" as="geometry" />
        </mxCell>
        <mxCell id="CmpI9BO4n1bqRSCLh2Nl-42" value="Address" style="ellipse;whiteSpace=wrap;html=1;" vertex="1" parent="WIyWlLk6GJQsqaUBKTNV-1">
          <mxGeometry y="130" width="85" height="30" as="geometry" />
        </mxCell>
        <mxCell id="CmpI9BO4n1bqRSCLh2Nl-43" value="" style="endArrow=none;html=1;exitX=1;exitY=0;exitDx=0;exitDy=0;entryX=0.25;entryY=1;entryDx=0;entryDy=0;" edge="1" parent="WIyWlLk6GJQsqaUBKTNV-1" source="CmpI9BO4n1bqRSCLh2Nl-42" target="CmpI9BO4n1bqRSCLh2Nl-0">
          <mxGeometry width="50" height="50" relative="1" as="geometry">
            <mxPoint x="100" y="260" as="sourcePoint" />
            <mxPoint x="150" y="210" as="targetPoint" />
          </mxGeometry>
        </mxCell>
        <mxCell id="CmpI9BO4n1bqRSCLh2Nl-44" value="" style="endArrow=none;html=1;entryX=1;entryY=1;entryDx=0;entryDy=0;exitX=0.133;exitY=0.015;exitDx=0;exitDy=0;exitPerimeter=0;" edge="1" parent="WIyWlLk6GJQsqaUBKTNV-1" source="CmpI9BO4n1bqRSCLh2Nl-0" target="CmpI9BO4n1bqRSCLh2Nl-40">
          <mxGeometry width="50" height="50" relative="1" as="geometry">
            <mxPoint x="90" y="110" as="sourcePoint" />
            <mxPoint x="100" y="240" as="targetPoint" />
          </mxGeometry>
        </mxCell>
        <mxCell id="CmpI9BO4n1bqRSCLh2Nl-45" value="" style="endArrow=none;html=1;entryX=0.4;entryY=1;entryDx=0;entryDy=0;entryPerimeter=0;exitX=0.5;exitY=0;exitDx=0;exitDy=0;" edge="1" parent="WIyWlLk6GJQsqaUBKTNV-1" source="CmpI9BO4n1bqRSCLh2Nl-0" target="CmpI9BO4n1bqRSCLh2Nl-41">
          <mxGeometry width="50" height="50" relative="1" as="geometry">
            <mxPoint x="110" y="220" as="sourcePoint" />
            <mxPoint x="160" y="170" as="targetPoint" />
          </mxGeometry>
        </mxCell>
        <mxCell id="CmpI9BO4n1bqRSCLh2Nl-53" value="Name&amp;nbsp;" style="ellipse;whiteSpace=wrap;html=1;" vertex="1" parent="WIyWlLk6GJQsqaUBKTNV-1">
          <mxGeometry x="550" y="470" width="110" height="30" as="geometry" />
        </mxCell>
        <mxCell id="CmpI9BO4n1bqRSCLh2Nl-54" value="number&amp;nbsp;" style="ellipse;whiteSpace=wrap;html=1;" vertex="1" parent="WIyWlLk6GJQsqaUBKTNV-1">
          <mxGeometry x="450" y="510" width="100" height="30" as="geometry" />
        </mxCell>
        <mxCell id="CmpI9BO4n1bqRSCLh2Nl-55" value="" style="endArrow=none;html=1;entryX=0.393;entryY=1.035;entryDx=0;entryDy=0;entryPerimeter=0;exitX=0.5;exitY=0;exitDx=0;exitDy=0;" edge="1" parent="WIyWlLk6GJQsqaUBKTNV-1" source="CmpI9BO4n1bqRSCLh2Nl-54" target="CmpI9BO4n1bqRSCLh2Nl-8">
          <mxGeometry width="50" height="50" relative="1" as="geometry">
            <mxPoint x="360" y="500" as="sourcePoint" />
            <mxPoint x="410" y="450" as="targetPoint" />
          </mxGeometry>
        </mxCell>
        <mxCell id="CmpI9BO4n1bqRSCLh2Nl-56" value="" style="endArrow=none;html=1;exitX=0.41;exitY=-0.025;exitDx=0;exitDy=0;exitPerimeter=0;entryX=0.907;entryY=1.145;entryDx=0;entryDy=0;entryPerimeter=0;" edge="1" parent="WIyWlLk6GJQsqaUBKTNV-1" source="CmpI9BO4n1bqRSCLh2Nl-53" target="CmpI9BO4n1bqRSCLh2Nl-8">
          <mxGeometry width="50" height="50" relative="1" as="geometry">
            <mxPoint x="350" y="540" as="sourcePoint" />
            <mxPoint x="553" y="450" as="targetPoint" />
          </mxGeometry>
        </mxCell>
        <mxCell id="CmpI9BO4n1bqRSCLh2Nl-57" value="COD" style="ellipse;whiteSpace=wrap;html=1;" vertex="1" parent="WIyWlLk6GJQsqaUBKTNV-1">
          <mxGeometry x="690" y="370" width="90" height="40" as="geometry" />
        </mxCell>
        <mxCell id="CmpI9BO4n1bqRSCLh2Nl-58" value="" style="endArrow=none;html=1;entryX=0.437;entryY=1.045;entryDx=0;entryDy=0;entryPerimeter=0;exitX=0.5;exitY=0;exitDx=0;exitDy=0;" edge="1" parent="WIyWlLk6GJQsqaUBKTNV-1" source="CmpI9BO4n1bqRSCLh2Nl-57" target="CmpI9BO4n1bqRSCLh2Nl-16">
          <mxGeometry width="50" height="50" relative="1" as="geometry">
            <mxPoint x="700" y="500" as="sourcePoint" />
            <mxPoint x="750" y="450" as="targetPoint" />
          </mxGeometry>
        </mxCell>
        <mxCell id="CmpI9BO4n1bqRSCLh2Nl-59" value="kind of product&amp;nbsp;" style="ellipse;whiteSpace=wrap;html=1;" vertex="1" parent="WIyWlLk6GJQsqaUBKTNV-1">
          <mxGeometry x="360" y="410" width="90" height="30" as="geometry" />
        </mxCell>
        <mxCell id="CmpI9BO4n1bqRSCLh2Nl-61" value="" style="endArrow=none;html=1;entryX=0.5;entryY=1;entryDx=0;entryDy=0;exitX=0.5;exitY=0;exitDx=0;exitDy=0;" edge="1" parent="WIyWlLk6GJQsqaUBKTNV-1" source="CmpI9BO4n1bqRSCLh2Nl-59" target="CmpI9BO4n1bqRSCLh2Nl-31">
          <mxGeometry width="50" height="50" relative="1" as="geometry">
            <mxPoint x="200" y="470" as="sourcePoint" />
            <mxPoint x="250" y="420" as="targetPoint" />
          </mxGeometry>
        </mxCell>
        <mxCell id="CmpI9BO4n1bqRSCLh2Nl-62" value="Cost&amp;nbsp;" style="ellipse;whiteSpace=wrap;html=1;" vertex="1" parent="WIyWlLk6GJQsqaUBKTNV-1">
          <mxGeometry x="245" y="410" width="100" height="30" as="geometry" />
        </mxCell>
        <mxCell id="CmpI9BO4n1bqRSCLh2Nl-63" value="" style="endArrow=none;html=1;entryX=0.313;entryY=1.075;entryDx=0;entryDy=0;entryPerimeter=0;exitX=0.5;exitY=0;exitDx=0;exitDy=0;" edge="1" parent="WIyWlLk6GJQsqaUBKTNV-1" source="CmpI9BO4n1bqRSCLh2Nl-62" target="CmpI9BO4n1bqRSCLh2Nl-31">
          <mxGeometry width="50" height="50" relative="1" as="geometry">
            <mxPoint x="240" y="420" as="sourcePoint" />
            <mxPoint x="290" y="370" as="targetPoint" />
          </mxGeometry>
        </mxCell>
        <mxCell id="CmpI9BO4n1bqRSCLh2Nl-64" value="Phone number" style="ellipse;whiteSpace=wrap;html=1;" vertex="1" parent="WIyWlLk6GJQsqaUBKTNV-1">
          <mxGeometry x="40" y="565" width="110" height="40" as="geometry" />
        </mxCell>
        <mxCell id="CmpI9BO4n1bqRSCLh2Nl-65" value="" style="endArrow=none;html=1;entryX=0.173;entryY=1.085;entryDx=0;entryDy=0;exitX=0.5;exitY=0;exitDx=0;exitDy=0;entryPerimeter=0;" edge="1" parent="WIyWlLk6GJQsqaUBKTNV-1" source="CmpI9BO4n1bqRSCLh2Nl-64" target="CmpI9BO4n1bqRSCLh2Nl-29">
          <mxGeometry width="50" height="50" relative="1" as="geometry">
            <mxPoint x="110" y="580" as="sourcePoint" />
            <mxPoint x="170" y="550" as="targetPoint" />
          </mxGeometry>
        </mxCell>
      </root>
    </mxGraphModel>
  </diagram>
</mxfile>
